<svg width="143" height="59" fill="none" xmlns="http://www.w3.org/2000/svg"><path d="M0 29.5C0 13.2076 13.2076 0 29.5 0h108.01c1.867 0 2.716 2.33066 1.286 3.53134L116.999 21.8433c-4.757 3.9962-4.757 11.3172 0 15.3134l21.797 18.312c1.43 1.2006.581 3.5313-1.286 3.5313H29.5C13.2076 59 0 45.7924 0 29.5Z" fill="#FF1640"/><path d="M18.875 19.8h7.6L31.45 37h-5.875l-.65-3.3h-4.45L19.75 37h-5.625l4.75-17.2Zm5.45 10.825L22.7 23.1 21 30.625h3.325ZM33.1055 19.8h5.4v13.4h5.975V37h-11.375V19.8Zm13.4521 0h6.2c2.5667 0 4.55.5 5.95 1.5 1.4167 1 2.125 2.4 2.125 4.2 0 1.1333-.35 2.125-1.05 2.975-.6833.85-1.625 1.5083-2.825 1.975-1.1833.45-2.5.675-3.95.675h-1.05V37h-5.4V19.8Zm6.475 7.85c.8834 0 1.5667-.1833 2.05-.55.4834-.3667.725-.9.725-1.6 0-.7-.2416-1.225-.725-1.575-.4666-.35-1.15-.525-2.05-.525h-1.075v4.2c.3334.0333.6917.05 1.075.05Zm9.7604-7.85h5.775V37h-5.775V19.8Zm9.0332 0h5.025l6.85 9.275V19.8h4.475V37h-5l-6.9-8.95V37h-4.45V19.8Zm19.6045 0h12.0753v3.8h-6.0003v3.125h5.4753v3.15h-5.4753V33.2h6.0003V37H91.4307V19.8Z" fill="#fff"/></svg>